<svg xmlns="http://www.w3.org/2000/svg" version="1.1" xmlns:xlink="http://www.w3.org/1999/xlink" width="1000" height="1000"><g clip-path="url(#SvgjsClipPath1152)"><rect width="1000" height="1000" fill="#ffffff"></rect><g transform="matrix(0.8,0,0,0.8,100,100)"><svg xmlns="http://www.w3.org/2000/svg" version="1.1" xmlns:xlink="http://www.w3.org/1999/xlink" width="1000" height="1000"><svg id="svg129" xmlns="http://www.w3.org/2000/svg" viewBox="0 0 1000 1000">
  <defs>
    <style>
      .cls-1 {
        fill: #fff;
      }

      .cls-2 {
        fill: #ffc3ce;
        stroke: #ffc3ce;
        stroke-miterlimit: 10;
        stroke-width: 20px;
      }

      .cls-3 {
        fill: #00033c;
      }

      .cls-4 {
        fill: #71caf3;
      }
    </style>
  <clipPath id="SvgjsClipPath1152"><rect width="1000" height="1000" x="0" y="0" rx="500" ry="500"></rect></clipPath></defs>
  <path id="path1" class="cls-2" d="M475.64,117.73c18.13-10.47,40.47-10.47,58.6,0l286.79,165.58c18.13,10.47,29.3,29.81,29.3,50.75v331.15c0,20.94-11.17,40.28-29.3,50.75l-286.79,165.58c-18.13,10.47-40.47,10.47-58.6,0l-286.79-165.58c-18.13-10.47-29.3-29.81-29.3-50.75v-331.15c0-20.93,11.17-40.28,29.3-50.75L475.64,117.73Z"></path>
  <g id="g125">
    <g id="g114">
      <path id="path113" class="cls-3" d="M189.15,502.98c0-112.61,59.11-211.32,147.88-266.79C150.34,316.86,16.95,502.98,16.95,502.98c0,0,133.39,186.13,320.08,266.79-88.77-55.48-147.88-154.19-147.88-266.79h0Z"></path>
      <path id="path114" class="cls-3" d="M667.97,236.18c88.76,55.48,147.88,154.19,147.88,266.79s-59.11,211.32-147.88,266.79c186.69-80.67,320.08-266.79,320.08-266.79,0,0-133.39-186.13-320.08-266.79h0Z"></path>
    </g>
  </g>
  <path id="path125" class="cls-3" d="M443.94,751.44c-136.76-32.38-221.45-169.8-189.16-306.94,32.29-137.14,169.34-222.06,306.1-189.68,136.76,32.38,221.45,169.8,189.16,306.94-32.29,137.14-169.34,222.06-306.1,189.68h0Z"></path>
  <path id="path126" class="cls-1" d="M456.4,698.56c-107.64-25.49-174.29-133.64-148.88-241.57,25.42-107.93,133.28-174.77,240.92-149.28,107.64,25.49,174.29,133.64,148.87,241.57-25.41,107.93-133.28,174.77-240.91,149.28h0Z"></path>
  <path id="path127" class="cls-4" d="M374.54,502.98c0-70.86,57.29-128.31,127.95-128.31s127.96,57.44,127.96,128.31-57.29,128.31-127.96,128.31-127.95-57.44-127.95-128.31h0Z"></path>
  <path id="path128" d="M487.55,566.26c-34.77-8.23-56.3-43.17-48.09-78.04,8.21-34.87,43.05-56.45,77.82-48.22,34.77,8.23,56.3,43.17,48.09,78.04-8.21,34.86-43.05,56.45-77.82,48.22h0Z"></path>
</svg></svg></g></g></svg>